<svg width="265" height="106" viewBox="0 0 265 106" fill="none" xmlns="http://www.w3.org/2000/svg">
<path d="M53.6324 0.245833C70.5468 0.245833 87.4995 0.245833 104.414 0.245833C106.366 0.245833 106.366 0.245833 106.366 2.12512C106.366 36.0289 106.366 69.8944 106.366 103.798C106.366 105.754 106.366 105.754 104.376 105.754C71.6949 105.754 39.0524 105.754 6.3716 105.754C5.07049 105.754 3.80765 105.486 2.50655 105.716C1.47331 105.869 1.16717 105.217 1.16717 104.22C1.20544 98.0069 1.20544 91.7554 1.16717 85.5423C1.1289 79.3291 0.899295 73.116 1.0141 66.8645C1.39678 45.2719 1.09063 23.641 1.1289 2.04841C1.1289 0.552655 1.47331 0.20748 2.92749 0.245833C19.8802 0.284186 36.7563 0.245833 53.6324 0.245833ZM92.0151 82.6275C92.0151 81.8604 92.0151 81.0934 92.0151 80.3263C92.0151 78.1018 90.8288 77.3348 88.8771 78.332C85.3565 80.1729 82.5629 79.2908 80.0755 76.2993C78.6979 74.6501 78.7361 70.7765 80.0755 69.089C82.4099 66.0974 85.2417 65.4454 88.8006 67.0563C90.7905 67.9384 91.9386 67.1713 92.0151 65.0619C92.1682 60.1528 91.2497 55.3587 91.0201 50.4879C90.9053 48.11 91.1349 45.6938 90.5609 43.3543C90.3313 42.3188 90.14 41.2832 90.293 40.2477C90.3696 39.6341 90.5609 38.9821 91.4411 39.404C94.2729 40.823 97.0282 40.9764 99.86 39.2505C102.424 37.6781 103.495 35.2619 103.342 32.6539C102.921 26.6709 97.143 23.5259 91.9768 26.249C91.5942 26.4407 91.1349 26.7476 90.7905 26.4791C90.3696 26.1723 90.2165 25.597 90.3313 25.06C90.7905 22.6055 90.4078 20.0742 90.5609 17.6196C90.5992 16.6224 90.0634 16.2006 89.0685 16.0855C86.8107 15.8554 84.5529 15.5102 82.2951 15.2801C81.5297 15.2034 80.7643 15.165 79.999 15.2417C78.2387 15.4335 77.282 17.2744 77.8943 19.3455C78.3917 21.1097 77.8177 23.3342 76.6697 24.3313C74.6415 26.0572 72.3837 26.8243 69.7049 26.4791C68.0211 26.2873 66.567 24.7916 67.0644 23.3342C67.4854 22.0302 67.8681 20.6495 68.6717 19.4605C69.8197 17.773 69.0161 15.5486 67.1027 14.8582C65.9547 14.4363 64.9214 14.9733 63.8499 15.0116C60.7502 15.1267 57.6505 15.3185 54.5891 15.6636C49.9587 16.2006 45.29 16.4307 40.6596 16.6991C39.1289 16.7759 38.8228 16.354 38.861 14.8582C38.861 14.1679 39.0906 13.5542 39.3585 12.9406C39.7795 11.9818 40.2387 11.0613 40.6213 10.0641C41.4632 7.83967 40.2387 5.4618 37.9043 5.23169C34.9577 4.92486 32.0876 4.92486 29.7533 7.41779C28.0695 9.22037 27.2276 11.7133 28.0695 13.7843C28.9496 15.8554 28.3756 16.6991 26.0796 16.6991C23.0947 16.6608 20.148 15.8937 17.1249 16.0855C16.0534 16.1622 15.4794 16.5841 15.3646 17.5429C15.0584 20.381 14.9819 23.2958 15.0967 26.2106C15.1732 28.0516 16.7805 28.8953 18.5408 28.32C19.6506 27.9365 20.6072 27.1694 21.8318 27.0544C24.2427 26.7859 27.9164 29.2021 28.0312 32.2704C28.1078 34.6866 27.4189 36.8343 25.3142 37.9466C23.4008 38.9437 21.143 38.9821 19.1531 37.7931C18.2346 37.2562 17.3545 37.2179 16.4743 37.6397C15.5559 38.0616 15.0201 38.752 15.1349 39.9025C15.4028 43.1625 15.5176 46.4609 15.7855 49.7592C16.1299 54.4766 16.5509 59.2323 16.857 63.9497C16.9718 65.4071 16.7039 65.4838 15.288 64.9469C12.1883 63.7579 9.12689 64.0648 6.79255 66.2892C3.65458 69.2807 3.00403 72.6941 4.91742 76.9129C5.37664 77.8717 6.14199 78.7922 6.98389 79.4058C9.5861 81.2468 12.4179 81.7453 15.4794 80.5564C16.5891 80.1345 16.9718 80.4797 16.8187 81.6687C16.5126 83.8931 16.5509 86.1176 16.5509 88.342C16.5509 90.298 17.2014 90.6815 19.1531 90.95C21.7936 91.2952 24.4723 91.3335 27.0745 91.7171C30.0594 92.1773 31.7815 90.298 31.2457 87.1531C31.0926 86.1943 30.3656 85.3122 30.6717 84.2383C31.7815 80.6331 36.3736 78.6004 39.7412 80.8632C40.3917 81.3235 40.43 81.7454 40.1239 82.4357C39.4733 83.8164 38.9758 85.2738 38.3253 86.6161C37.1772 88.879 38.5549 91.9088 41.9607 91.7171C43.7976 91.602 45.6727 91.602 47.5096 91.3719C49.8822 91.1034 52.293 91.1034 54.6274 90.7582C57.8419 90.298 61.0181 89.9145 64.2326 89.7227C65.0362 89.6844 65.8399 89.6844 66.6052 89.2625C67.2941 88.879 67.7915 89.3392 68.2507 89.7611C68.71 90.1829 68.4038 90.6048 68.2125 91.0651C67.8298 92.1006 67.6002 93.1745 66.9879 94.0949C64.5005 98.0453 68.0211 101.075 71.2739 101.229C72.6898 101.305 74.0292 101.037 75.292 100.577C77.3585 99.8478 79.1571 98.774 80.1903 96.5879C80.9557 94.9387 81.147 93.3279 80.6113 91.6403C80.3051 90.6432 80.8409 89.7227 81.6445 89.9145C84.0936 90.4898 86.6193 89.9145 88.9919 90.6432C90.3313 91.0651 91.6707 90.1829 91.6707 88.8022C91.7472 86.7696 92.1299 84.6985 92.0151 82.6275Z" fill="#FCBE4A"/>
<path d="M144.174 42.6639C142.414 45.7322 140.654 48.8004 138.74 52.0987C136.827 48.8771 135.028 45.8089 133.23 42.7406C133.077 42.779 132.962 42.8557 132.809 42.8941C132.809 44.735 132.77 46.5759 132.809 48.4168C132.847 50.4879 132.656 52.5206 132.923 54.5916C133.038 55.397 132.694 55.7806 131.775 55.7806C127.872 55.7422 123.931 55.7422 120.027 55.7806C119.147 55.7806 118.956 55.4354 118.994 54.6683C119.032 52.8658 119.032 51.0248 118.994 49.2223C118.956 48.3018 119.185 47.7649 120.219 47.7265C121.099 47.6881 121.367 47.2279 121.367 46.3458C121.328 43.3926 121.328 40.4011 121.367 37.448C121.367 36.4892 121.137 35.9522 120.142 35.9522C119.262 35.9522 118.994 35.5687 118.994 34.7249C119.032 32.8456 119.032 31.0047 118.994 29.1254C118.994 28.2817 119.185 27.8598 120.219 27.8598C124.198 27.9365 128.14 27.8981 132.12 27.8598C132.77 27.8598 133.077 28.0899 133.383 28.7035C134.875 31.6567 136.521 34.6099 138.051 37.5247C138.549 38.4451 138.97 38.3684 139.391 37.5247C140.807 34.8783 142.261 32.2704 143.638 29.5857C144.251 28.32 145.016 27.7831 146.509 27.8214C149.953 27.9365 153.397 27.9365 156.841 27.8214C158.142 27.7831 158.486 28.2433 158.41 29.4706C158.333 31.1965 158.372 32.9223 158.41 34.6482C158.41 35.4536 158.219 35.9522 157.338 35.9139C156.267 35.8755 156.076 36.5275 156.076 37.4096C156.076 40.4395 156.114 43.431 156.076 46.4609C156.076 47.2663 156.458 47.6881 157.147 47.6881C158.295 47.6881 158.448 48.3018 158.448 49.2223C158.41 50.9865 158.41 52.7507 158.448 54.5149C158.486 55.4737 158.142 55.7422 157.224 55.7422C153.397 55.7039 149.57 55.7039 145.743 55.7422C144.71 55.7422 144.595 55.282 144.595 54.4382C144.633 50.5646 144.595 46.691 144.595 42.8173C144.404 42.779 144.289 42.7023 144.174 42.6639Z" fill="#F86549"/>
<path d="M211.028 43.7762C209.804 45.8089 208.617 47.8416 207.431 49.8742C205.939 52.4055 205.939 52.4055 204.484 49.9126C203.26 47.8799 202.035 45.8472 200.466 43.8529C200.466 45.1952 200.466 46.5759 200.466 47.9183C200.466 50.066 200.428 52.2521 200.466 54.3999C200.505 55.4354 200.198 55.8189 199.089 55.8189C195.606 55.7422 192.124 55.7422 188.603 55.8189C187.608 55.8189 187.226 55.5121 187.264 54.5149C187.302 52.9808 187.34 51.4467 187.264 49.9126C187.226 48.9921 187.57 48.5319 188.412 48.4936C189.407 48.4552 189.598 47.9183 189.598 46.9978C189.56 44.3131 189.56 41.6284 189.598 38.9437C189.598 38.1767 189.522 37.6397 188.603 37.6014C187.647 37.5247 187.226 36.9877 187.264 35.9522C187.34 34.4565 187.302 32.9991 187.302 31.5033C187.302 30.5828 187.685 30.2377 188.603 30.2377C192.277 30.276 195.951 30.276 199.663 30.276C200.198 30.276 200.543 30.4294 200.811 30.928C202.303 33.6127 203.796 36.259 205.288 38.9054C205.479 39.2122 205.518 39.7491 205.977 39.6724C206.398 39.6341 206.513 39.1738 206.704 38.867C208.12 36.2974 209.574 33.6894 210.99 31.1198C211.296 30.5445 211.679 30.2377 212.406 30.2377C216.003 30.3144 219.562 30.3144 223.159 30.276C224.116 30.276 224.422 30.5828 224.384 31.5033C224.345 33.0374 224.384 34.5715 224.46 36.1056C224.498 37.0261 224.231 37.6014 223.274 37.6397C222.547 37.6781 222.317 37.9849 222.317 38.7136C222.355 41.5901 222.355 44.4665 222.317 47.343C222.317 48.0717 222.509 48.4552 223.236 48.4936C224.231 48.5319 224.46 49.1072 224.422 50.0277C224.345 51.5618 224.345 53.0959 224.422 54.63C224.46 55.5505 224.154 55.8956 223.197 55.8573C219.6 55.8189 216.041 55.8189 212.444 55.8573C211.564 55.8573 211.411 55.5504 211.411 54.7834C211.449 51.1782 211.411 47.6114 211.411 44.0063C211.258 43.8529 211.143 43.8145 211.028 43.7762Z" fill="#F86549"/>
<path d="M220.289 61.0349C223.083 61.1883 226.565 60.5363 229.971 61.265C235.787 62.4923 239.576 66.2125 239.806 72.5407C239.959 76.4143 239.27 79.9811 236.247 82.7042C233.721 84.967 230.621 85.7724 227.369 86.1943C221.667 86.923 215.926 86.386 210.186 86.5394C209.574 86.5394 209.344 86.3093 209.344 85.6957C209.383 83.8931 209.383 82.0522 209.344 80.2496C209.306 79.3291 209.957 79.1757 210.531 79.1374C211.449 79.0607 211.602 78.5237 211.602 77.795C211.602 75.1103 211.602 72.4256 211.602 69.741C211.602 68.6287 211.487 67.6316 210.033 67.5932C209.421 67.5932 209.383 67.1713 209.383 66.7111C209.383 65.1386 209.421 63.5662 209.383 61.9554C209.344 60.9198 210.033 61.0732 210.645 61.0732C213.669 61.0349 216.654 61.0349 220.289 61.0349ZM222.355 73.4612C222.355 74.1132 222.394 74.8035 222.355 75.4555C222.241 79.4058 222.738 79.751 226.565 78.6771C226.641 78.6388 226.756 78.6004 226.833 78.5621C228.019 78.1402 228.708 77.3348 228.861 76.0692C229.052 74.535 228.938 73.0393 228.899 71.5052C228.823 69.3958 227.981 68.3986 225.838 68.0534C225.149 67.9384 224.422 67.9384 223.695 67.8617C222.585 67.7083 222.279 68.3219 222.317 69.2807C222.394 70.6614 222.355 72.0805 222.355 73.4612Z" fill="#F86549"/>
<path d="M189.636 61.0732C192.698 61.1883 196.946 60.8048 201.079 61.917C203.642 62.6074 205.747 63.988 206.168 66.7494C206.666 69.8944 206.436 73.0393 203.107 74.8802C202.494 75.2254 201.423 75.1103 201.423 75.9157C201.385 76.7595 202.15 77.4115 202.686 78.0635C203.375 78.9073 203.949 79.9044 204.752 80.5948C206.398 82.0138 206.321 83.8548 206.321 85.6957C206.321 86.4244 206.015 86.5778 205.403 86.5778C202.456 86.5394 199.471 86.5394 196.525 86.5778C195.798 86.5778 195.415 86.3093 195.109 85.6573C193.922 83.3178 192.774 80.9783 192.124 78.4087C192.047 78.0635 192.009 77.3731 191.473 77.4882C190.976 77.6033 191.129 78.2169 191.129 78.6388C191.129 80.9016 191.091 83.1261 191.129 85.3889C191.167 86.3477 190.784 86.6162 189.866 86.5778C186.384 86.5394 182.901 86.5394 179.381 86.5778C178.347 86.5778 178.08 86.1943 178.118 85.2355C178.194 83.663 178.156 82.0905 178.118 80.4797C178.08 79.7127 178.347 79.2524 179.113 79.2141C180.069 79.1757 180.261 78.5621 180.261 77.795C180.261 75.0336 180.223 72.2339 180.261 69.4725C180.261 68.6287 179.878 68.3603 179.189 68.3219C178.347 68.2452 178.08 67.785 178.118 66.9796C178.156 65.4455 178.194 63.9113 178.118 62.3772C178.08 61.3801 178.424 61.0349 179.419 61.0349C182.404 61.0732 185.465 61.0732 189.636 61.0732ZM191.052 69.204C191.014 69.856 191.091 70.5464 191.014 71.1984C190.899 72.2339 191.32 72.5407 192.315 72.5023C195.721 72.3873 195.874 69.8944 195.147 67.3631C194.841 66.2125 193.042 65.5222 191.703 65.8673C190.555 66.1742 191.244 67.2097 191.052 67.9C190.976 68.3219 191.052 68.7821 191.052 69.204Z" fill="#F86549"/>
<path d="M242.255 56.0874C237.969 56.0107 233.798 55.4354 230.545 52.1754C228.402 50.0277 227.369 47.343 227.177 44.3515C226.948 40.7847 227.254 37.3713 229.626 34.4565C230.927 32.8456 232.535 31.6567 234.41 31.0047C240.456 28.857 246.464 28.8953 252.204 32.1169C255.266 33.8428 256.873 36.6426 257.294 40.0943C257.638 42.8941 257.6 45.6938 256.49 48.4168C254.883 52.3288 251.898 54.5149 247.957 55.5504C246.12 56.0107 244.206 56.2024 242.255 56.0874ZM246.656 42.8173C246.694 42.8173 246.732 42.8173 246.732 42.8173C246.694 42.2037 246.732 41.5517 246.617 40.9764C246.235 38.4835 245.087 37.4096 242.561 37.2179C240.456 37.0261 238.734 38.0616 238.198 40.056C237.739 41.7818 237.854 43.546 238.198 45.2719C238.351 46.039 238.696 46.9211 239.308 47.343C240.877 48.3401 242.599 48.6086 244.36 47.8416C245.928 47.1129 246.464 45.7322 246.617 44.1213C246.694 43.6995 246.656 43.2776 246.656 42.8173Z" fill="#F86549"/>
<path d="M161.203 61.0732C163.193 61.0732 165.222 61.0732 167.211 61.0732C167.9 61.0732 168.245 61.265 168.474 62.0704C169.89 67.0179 171.459 71.9271 172.913 76.8362C173.105 77.4115 173.258 77.9484 173.985 77.9484C175.095 77.9484 175.286 78.6004 175.248 79.5592C175.209 81.4769 175.209 83.3945 175.248 85.3122C175.248 86.1943 175.056 86.5778 174.061 86.5778C171.536 86.5011 169.01 86.5394 166.484 86.5778C165.834 86.5778 165.451 86.5011 165.451 85.6573C165.413 84.8136 165.068 84.0082 164.954 83.1261C164.839 82.3974 164.456 82.1672 163.767 82.2056C162.007 82.2056 160.247 82.2439 158.448 82.2056C157.721 82.2056 157.453 82.5124 157.338 83.1644C157.147 84.2766 157.3 85.8107 156.42 86.3477C155.578 86.8463 154.2 86.5394 153.052 86.5394C151.445 86.5394 149.8 86.5011 148.192 86.5394C147.465 86.5394 147.083 86.4244 147.083 85.5423C147.121 83.4329 147.083 81.3235 147.044 79.2141C147.044 78.4854 147.236 77.9484 148.001 77.9484C149.073 77.9484 149.302 77.2197 149.532 76.4143C150.909 71.6586 152.402 66.9412 153.741 62.2238C154.009 61.3034 154.43 60.9965 155.31 61.0349C157.262 61.0732 159.252 61.0732 161.203 61.0732ZM161.318 67.0946C161.203 67.0946 161.089 67.0946 160.974 67.0946C160.438 69.1657 159.902 71.1984 159.405 73.2694C158.525 76.7211 158.525 76.7211 162.084 76.6444C162.313 76.6444 162.543 76.5677 162.811 76.5677C163.385 76.5294 163.538 76.2226 163.423 75.6856C162.696 72.8092 162.007 69.9711 161.318 67.0946Z" fill="#F86549"/>
<path d="M173.143 55.7422C169.852 55.7422 166.561 55.7039 163.232 55.7806C162.313 55.7806 161.969 55.5505 162.007 54.5916C162.084 53.0192 162.084 51.4467 162.007 49.8359C161.969 48.9538 162.237 48.4552 163.155 48.4168C164.188 48.3785 164.341 47.7649 164.341 46.8827C164.303 44.3131 164.303 41.7051 164.341 39.1355C164.38 38.1767 164.188 37.563 163.079 37.5247C162.237 37.5247 162.007 37.0261 162.045 36.1823C162.122 34.5715 162.122 32.9223 162.045 31.3115C162.007 30.3911 162.351 30.161 163.193 30.161C169.928 30.161 176.664 30.1993 183.399 30.161C184.241 30.161 184.47 30.5061 184.432 31.2732C184.394 33.1908 184.432 35.1085 184.432 37.0261C184.432 39.6341 183.552 40.1327 181.179 38.9437C179.802 38.2534 178.386 37.7164 176.855 37.6397C175.056 37.5247 175.056 37.5247 175.056 39.2889C175.056 39.6724 175.056 40.056 175.018 40.4395C174.98 41.3216 175.439 41.5517 176.204 41.3599C177.238 41.1298 178.233 40.8614 179.266 40.6312C179.878 40.4778 180.146 40.6696 180.146 41.3216C180.146 42.4338 180.146 43.5077 180.146 44.6199C180.146 45.1952 179.955 45.502 179.266 45.3103C178.271 45.0035 177.238 44.85 176.204 44.6199C175.554 44.4665 175.095 44.5816 175.095 45.4253C175.133 46.1924 175.018 46.9594 175.018 47.7265C175.018 48.6853 175.783 48.6086 176.357 48.5319C178.08 48.3401 179.725 47.8799 181.218 47.0361C181.638 46.806 182.059 46.6143 182.557 46.5759C184.279 46.4609 184.432 46.5376 184.432 48.3018C184.432 50.3728 184.394 52.4055 184.47 54.4766C184.509 55.4737 184.241 55.7806 183.207 55.7806C179.84 55.7039 176.472 55.7422 173.143 55.7422Z" fill="#F86549"/>
<path d="M253.123 86.8079C250.138 86.8846 247.23 86.6545 244.398 85.5806C243.441 85.1971 243.097 84.6602 243.058 83.8164C242.982 82.5124 243.02 81.2468 243.058 79.9428C243.058 79.0607 243.479 78.6388 244.398 78.7538C244.972 78.8306 245.546 78.8306 246.12 78.7538C247.344 78.6388 248.454 78.7922 249.258 79.9044C249.832 80.6715 250.75 80.9016 251.669 81.0167C253.046 81.1701 254.003 80.4414 254.156 79.0607C254.233 78.3703 254.156 77.9484 253.276 77.8334C251.095 77.5649 248.952 77.1814 246.923 76.2609C243.479 74.6501 241.949 71.6586 242.446 67.5165C242.829 64.4866 245.622 61.6102 248.76 60.9198C253.046 59.9994 257.294 60.2678 261.504 61.265C263.685 61.7636 264.182 62.4923 264.221 64.7935C264.259 68.7054 264.259 68.6671 260.355 68.7054C259.361 68.7054 258.595 68.6287 257.945 67.6316C257.485 66.9412 256.72 66.3659 255.687 66.3276C253.926 66.2125 252.702 67.4014 253.008 69.1273C253.161 70.0478 253.965 69.7793 254.501 69.8177C256.758 69.9327 258.901 70.3546 260.968 71.3518C264.221 72.9242 265.062 75.724 264.986 78.9456C264.833 83.8548 261.197 86.386 256.146 86.8079C255.113 86.8846 254.118 86.8079 253.123 86.8079Z" fill="#F86549"/>
<path d="M144.327 66.2892C144.327 67.3247 144.289 68.3986 144.327 69.4341C144.366 70.2012 144.059 70.4313 143.332 70.393C142.337 70.3546 141.342 70.3546 140.347 70.393C139.735 70.393 139.276 70.2012 138.855 69.7026C137.363 67.8617 135.334 67.5549 133.306 68.3219C131.163 69.089 130.245 70.9682 130.206 73.1927C130.092 77.6033 132.962 79.8277 137.783 78.9456C139.62 78.6004 141.419 78.2169 143.218 77.7567C144.059 77.5266 144.366 77.7567 144.366 78.6004C144.366 80.403 144.404 82.2439 144.404 84.0465C144.404 84.8136 144.098 85.2738 143.218 85.5039C138.051 86.923 132.885 87.4216 127.681 85.9258C123.012 84.5835 120.104 80.7482 119.53 75.9157C119.147 72.8475 119.3 69.9327 120.563 67.0946C121.941 64.0264 124.39 62.1471 127.451 61.3034C132.732 59.8076 138.013 59.9994 143.179 61.917C144.059 62.2238 144.404 62.6841 144.327 63.5662C144.251 64.4866 144.289 65.4071 144.327 66.2892Z" fill="#F86549"/>
<path d="M92.0151 82.6275C92.1299 84.6985 91.7855 86.7312 91.7472 88.8023C91.709 90.183 90.3696 91.0267 89.0685 90.6432C86.6576 89.9145 84.1319 90.4898 81.721 89.9145C80.9174 89.7227 80.3434 90.6432 80.6878 91.6404C81.2236 93.3662 81.0322 94.9387 80.2669 96.5879C79.2719 98.774 77.4733 99.8478 75.3686 100.577C74.1057 101.037 72.7664 101.305 71.3505 101.229C68.0977 101.075 64.577 98.0453 67.0644 94.0949C67.6767 93.1361 67.8681 92.0622 68.289 91.0651C68.4804 90.6048 68.7865 90.183 68.3273 89.7611C67.8681 89.3392 67.3323 88.879 66.6818 89.2625C65.9164 89.6844 65.1128 89.646 64.3092 89.7227C61.0947 89.9145 57.8802 90.298 54.7039 90.7582C52.3696 91.1034 49.9587 91.1034 47.5861 91.3719C45.7492 91.602 43.8741 91.602 42.0373 91.7171C38.6314 91.9088 37.2538 88.879 38.4018 86.6162C39.0906 85.2738 39.5881 83.8164 40.2004 82.4357C40.5065 81.7454 40.5065 81.3235 39.8177 80.8632C36.4501 78.6004 31.858 80.6331 30.7482 84.2383C30.4038 85.3122 31.1309 86.1559 31.3223 87.1531C31.858 90.2597 30.0977 92.1389 27.1511 91.7171C24.5106 91.3335 21.8701 91.2952 19.2296 90.95C17.2779 90.6815 16.6657 90.298 16.6274 88.342C16.6274 86.1176 16.5891 83.8931 16.8953 81.6687C17.0483 80.5181 16.6274 80.1729 15.5559 80.5564C12.4945 81.7454 9.66264 81.2084 7.06042 79.4058C6.21853 78.7922 5.4149 77.8717 4.99396 76.9129C3.04229 72.7325 3.69285 69.2807 6.86908 66.2892C9.24169 64.0648 12.3031 63.7196 15.3646 64.9469C16.7805 65.4838 17.0483 65.4455 16.9335 63.9497C16.5891 59.2323 16.2064 54.4766 15.862 49.7592C15.6324 46.4609 15.4794 43.2009 15.2115 39.9025C15.1349 38.752 15.6324 38.1 16.5509 37.6397C17.4693 37.2179 18.3112 37.2179 19.2296 37.7931C21.2195 38.9821 23.4773 38.9437 25.3907 37.9466C27.4955 36.8727 28.2226 34.6866 28.1078 32.2704C27.9929 29.2021 24.281 26.7859 21.9084 27.0544C20.6838 27.1694 19.7654 27.9748 18.6173 28.32C16.8953 28.8953 15.2497 28.0516 15.1732 26.2106C14.9819 23.2958 15.0584 20.381 15.4028 17.4662C15.5176 16.5074 16.0916 16.0855 17.1631 16.0088C20.1863 15.817 23.1329 16.6224 26.1178 16.6224C28.3756 16.6224 28.9496 15.817 28.1078 13.7076C27.2659 11.6366 28.1078 9.14366 29.7915 7.34109C32.1259 4.88651 34.996 4.84816 37.9426 5.15498C40.2387 5.3851 41.5015 7.76297 40.6596 9.98742C40.2769 10.9462 39.8177 11.9051 39.3968 12.8639C39.1289 13.4775 38.8993 14.0912 38.8993 14.7815C38.861 16.2773 39.2054 16.6991 40.6979 16.6224C45.3666 16.354 49.997 16.1239 54.6274 15.5869C57.6888 15.2417 60.7885 15.05 63.8882 14.9349C64.9597 14.8966 65.9929 14.3596 67.141 14.7815C69.0161 15.4719 69.858 17.6963 68.71 19.3838C67.9063 20.5728 67.5237 21.9535 67.1027 23.2575C66.6052 24.7149 68.0594 26.2106 69.7432 26.4024C72.4219 26.7476 74.6798 25.9805 76.708 24.2546C77.856 23.2575 78.43 21.033 77.9325 19.2688C77.3202 17.2361 78.2769 15.3568 80.0373 15.165C80.8026 15.0883 81.568 15.1267 82.3333 15.2034C84.5911 15.4335 86.8489 15.7787 89.1067 16.0088C90.1017 16.1239 90.6375 16.5457 90.5992 17.5429C90.4461 20.0358 90.8288 22.5288 90.3696 24.9833C90.2548 25.5203 90.4079 26.0956 90.8288 26.4024C91.2115 26.6709 91.6324 26.4024 92.0151 26.1723C97.1813 23.4492 102.96 26.5942 103.381 32.5772C103.572 35.1852 102.462 37.6014 99.8983 39.1738C97.0282 40.9381 94.3112 40.7847 91.4794 39.3273C90.5609 38.867 90.4079 39.519 90.3313 40.171C90.1782 41.2449 90.3696 42.2804 90.5992 43.2776C91.1349 45.6171 90.9436 48.0333 91.0584 50.4112C91.288 55.282 92.2064 60.1144 92.0534 64.9852C91.9768 67.133 90.8288 67.8617 88.8389 66.9796C85.2417 65.3687 82.4481 66.0207 80.1138 69.0123C78.7744 70.6998 78.7361 74.5734 80.1138 76.2226C82.5629 79.2141 85.3565 80.0962 88.9154 78.2553C90.8671 77.2197 92.0534 78.0251 92.0534 80.2496C92.0151 81.1317 92.0151 81.8988 92.0151 82.6275ZM35.6465 54.8985C34.422 54.8985 33.1591 54.8985 31.9345 54.8985C28.2991 54.8985 24.6636 54.8601 21.0282 54.8601C20.4159 54.8601 19.4975 54.745 19.574 55.7039C19.7654 58.0817 19.5358 60.4596 20.148 62.8375C20.4159 63.8346 20.3394 64.9469 20.2246 65.9824C19.8036 68.9355 17.431 69.7793 14.1782 68.2068C12.8006 67.5548 11.2699 67.4781 10.0453 68.1685C7.51964 69.5492 6.86908 71.2367 7.40483 74.3049C7.71098 76.1075 10.1601 77.8334 12.2649 77.7183C13.4512 77.6416 14.4844 77.2581 15.5176 76.7979C18.005 75.6473 19.995 76.9129 19.995 79.6743C19.995 81.8604 20.0332 84.0849 19.9567 86.271C19.9184 87.1914 20.2246 87.6517 21.1813 87.8051C23.0181 88.1503 24.8933 87.8818 26.7301 88.227C27.9547 88.4571 27.8781 87.4599 27.6103 86.7312C27.1511 85.3122 27.1893 83.9315 27.6868 82.5508C28.72 79.7894 30.7865 78.0251 33.427 77.143C35.4169 76.491 37.5217 76.376 39.6647 77.028C41.9225 77.7183 43.3001 79.1757 43.4914 81.5536C43.6445 83.6246 42.3434 85.1588 41.7311 86.923C41.3102 88.1119 41.3484 88.4571 42.6495 88.3037C45.2135 88.0352 47.8157 88.227 50.4179 87.6133C51.6042 87.3449 51.8338 86.9613 51.8338 85.8875C51.7956 76.7979 51.7956 67.6699 51.8338 58.5803C51.8338 58.1201 51.8338 57.6215 51.9104 57.1613C52.2165 55.397 51.9104 54.9752 50.15 54.9752C45.29 54.8985 40.4683 54.8985 35.6465 54.8985ZM56.1198 34.7633C56.1198 39.2122 56.1198 43.6611 56.1198 48.11C56.1198 50.718 56.1198 50.718 58.7221 50.603C58.9134 50.603 59.1047 50.603 59.2961 50.603C68.1742 50.603 77.0906 50.603 85.9688 50.603C87.0403 50.603 87.4612 50.3728 87.423 49.1839C87.3464 46.6143 87.2699 44.0446 86.8489 41.475C86.428 38.867 87.3464 37.2946 89.5277 36.0673C91.1349 35.1468 92.4743 35.9522 93.8137 36.6042C95.3444 37.3329 96.7603 37.3713 98.138 36.2974C99.5539 35.1852 100.434 33.8045 99.86 31.9635C98.8651 28.6652 95.9567 27.9748 93.3162 29.4706C90.3696 31.1198 87.2699 29.7007 87.1168 26.3257C87.0403 24.4848 86.9637 22.6055 87.3081 20.7262C87.4995 19.6907 87.2316 19.077 86.0836 19.0387C84.7442 19.0003 83.4048 18.962 82.0655 18.9236C81.4914 18.9236 81.2236 19.2304 81.4149 19.729C81.8358 20.7645 81.4532 21.7234 81.1853 22.6438C80.2286 25.8654 78.0091 27.8214 74.9476 29.1638C72.001 30.4678 69.284 29.9308 66.6052 28.8953C63.4673 27.668 62.5106 22.7205 64.7684 19.8441C65.0362 19.4989 65.3807 19.2304 65.1511 18.7702C64.9597 18.3483 64.5388 18.3867 64.1561 18.3867C62.0131 18.2333 59.8701 18.6168 57.7271 18.6935C56.5025 18.7318 56.005 19.3071 56.0433 20.6878C56.1581 25.3669 56.1198 30.0459 56.1198 34.7633Z" fill="#F86549"/>
<path d="M35.6465 54.8985C40.4683 54.8985 45.29 54.8985 50.1118 54.8985C51.8721 54.8985 52.14 55.282 51.8721 57.0846C51.7956 57.5448 51.7956 58.0434 51.7956 58.5036C51.7956 67.5932 51.7956 76.7212 51.7956 85.8107C51.7956 86.8846 51.566 87.2682 50.3797 87.5366C47.8157 88.1503 45.2135 87.9585 42.6113 88.227C41.3102 88.3804 41.2719 88.0736 41.6929 86.8463C42.3051 85.082 43.6445 83.5863 43.4532 81.4769C43.2618 79.1374 41.8459 77.6416 39.6264 76.9513C37.4834 76.2993 35.3786 76.4143 33.3887 77.0663C30.71 77.9484 28.6435 79.7127 27.6485 82.4741C27.1511 83.8548 27.0745 85.2355 27.572 86.6545C27.8399 87.3832 27.8781 88.4187 26.6918 88.1503C24.855 87.8051 22.9799 88.0352 21.143 87.7284C20.1863 87.5366 19.8802 87.1147 19.9184 86.1943C19.9567 84.0082 19.9567 81.7837 19.9567 79.5976C19.9567 76.7979 17.9668 75.5706 15.4794 76.7211C14.4461 77.1814 13.4129 77.5649 12.2266 77.6416C10.1219 77.7567 7.67271 76.0308 7.36656 74.2282C6.83081 71.1984 7.48137 69.5108 10.007 68.0918C11.2316 67.4014 12.7623 67.4781 14.14 68.1301C17.3927 69.7026 19.7654 68.8588 20.1863 65.9057C20.3394 64.8702 20.3776 63.7579 20.1098 62.7608C19.4975 60.4212 19.7654 58.005 19.5357 55.6272C19.4592 54.6683 20.3776 54.7834 20.9899 54.7834C24.6254 54.7834 28.2608 54.7834 31.8963 54.8217C33.1591 54.8985 34.422 54.8985 35.6465 54.8985Z" fill="#FCBE4A"/>
<path d="M56.1198 34.7633C56.1198 30.0842 56.1964 25.3669 56.0816 20.6878C56.0433 19.3071 56.5408 18.7318 57.7654 18.6935C59.9084 18.6168 62.0131 18.2333 64.1944 18.3867C64.577 18.425 64.998 18.3483 65.1893 18.7702C65.4189 19.2688 65.0745 19.4989 64.8066 19.8441C62.5488 22.6822 63.5055 27.668 66.6435 28.8953C69.3605 29.9308 72.0775 30.4678 74.9859 29.1638C78.0473 27.8214 80.2669 25.8654 81.2236 22.6438C81.4914 21.7234 81.9124 20.7645 81.4532 19.729C81.2618 19.2304 81.5297 18.8853 82.1037 18.9236C83.4431 18.962 84.7825 19.0003 86.1218 19.0387C87.2699 19.077 87.5378 19.6907 87.3464 20.7262C87.0403 22.5671 87.0785 24.4464 87.1551 26.3257C87.3081 29.7007 90.4078 31.1198 93.3545 29.4706C95.995 28.0132 98.9416 28.7035 99.8983 31.9635C100.472 33.8045 99.5921 35.1852 98.1762 36.2974C96.7986 37.3713 95.3827 37.3329 93.852 36.6042C92.5126 35.9522 91.2115 35.1852 89.566 36.0673C87.3464 37.2946 86.4663 38.8287 86.8872 41.475C87.3082 44.0446 87.3847 46.6143 87.4612 49.1839C87.4995 50.3728 87.0785 50.603 86.007 50.603C77.1289 50.5646 68.2125 50.603 59.3343 50.603C59.143 50.603 58.9517 50.603 58.7603 50.603C56.1581 50.6797 56.1581 50.6797 56.1581 48.11C56.1198 43.6611 56.1198 39.2122 56.1198 34.7633Z" fill="#FCBE4A"/>
</svg>
